# Blender v2.90.0 OBJ File: ''
# www.blender.org
o Wall_Cube.001
v -0.500000 -0.028284 2.800000
v -0.500000 2.869887 2.800000
v -0.500000 -0.028284 -2.800000
v -0.500000 2.869887 -2.800000
v 0.500000 -0.028284 2.800000
v 0.500000 2.869887 2.800000
v 0.500000 -0.028284 -2.800000
v 0.500000 2.869887 -2.800000
v 0.500000 1.476418 1.397499
v -0.500000 1.476418 1.397499
v 0.500000 1.779458 1.397499
v -0.500000 1.779458 1.397499
v 0.500000 1.779458 1.094459
v -0.500000 1.779458 1.094459
v 0.500000 1.476418 1.094459
v -0.500000 1.476418 1.094459
v 0.500000 1.476418 -1.118244
v -0.500000 1.476418 -1.118244
v 0.500000 1.779458 -1.118244
v -0.500000 1.779458 -1.118244
v 0.500000 1.779458 -1.421284
v -0.500000 1.779458 -1.421285
v 0.500000 1.476418 -1.421284
v -0.500000 1.476418 -1.421285
v -0.500000 -0.028284 -2.800000
v -0.500000 -0.028284 -2.800000
v -0.500000 -0.028284 2.800000
v -0.500000 -0.028284 2.800000
v -0.500000 2.869887 2.800000
v -0.500000 2.869887 2.800000
v -0.500000 2.869887 2.800000
v -0.500000 2.869887 -2.800000
v -0.500000 2.869887 -2.800000
v -0.500000 2.869887 -2.800000
v -0.500000 2.869887 -2.800000
v 0.500000 -0.028284 -2.800000
v 0.500000 -0.028284 -2.800000
v 0.500000 2.869887 -2.800000
v 0.500000 2.869887 -2.800000
v 0.500000 2.869887 -2.800000
v 0.500000 2.869887 -2.800000
v 0.500000 -0.028284 2.800000
v 0.500000 -0.028284 2.800000
v 0.500000 2.869887 2.800000
v 0.500000 2.869887 2.800000
v 0.500000 2.869887 2.800000
v 0.500000 1.779458 1.397499
v 0.500000 1.779458 1.397499
v 0.500000 1.476418 1.397499
v 0.500000 1.476418 1.397499
v 0.500000 1.476418 1.397499
v -0.500000 1.779458 1.397499
v -0.500000 1.779458 1.397499
v -0.500000 1.779458 1.397499
v -0.500000 1.476418 1.397499
v -0.500000 1.476418 1.397499
v 0.500000 1.779458 1.094459
v 0.500000 1.779458 1.094459
v 0.500000 1.779458 1.094459
v -0.500000 1.779458 1.094459
v -0.500000 1.779458 1.094459
v -0.500000 1.476418 1.094459
v -0.500000 1.476418 1.094459
v -0.500000 1.476418 1.094459
v -0.500000 1.476418 1.094459
v 0.500000 1.476418 1.094459
v 0.500000 1.476418 1.094459
v 0.500000 1.476418 1.094459
v 0.500000 1.779458 -1.118244
v 0.500000 1.779458 -1.118244
v 0.500000 1.476418 -1.118244
v 0.500000 1.476418 -1.118244
v 0.500000 1.476418 -1.118244
v -0.500000 1.779458 -1.118244
v -0.500000 1.779458 -1.118244
v -0.500000 1.779458 -1.118244
v -0.500000 1.476418 -1.118244
v -0.500000 1.476418 -1.118244
v 0.500000 1.779458 -1.421284
v 0.500000 1.779458 -1.421284
v 0.500000 1.779458 -1.421284
v -0.500000 1.779458 -1.421285
v -0.500000 1.779458 -1.421285
v -0.500000 1.476418 -1.421285
v -0.500000 1.476418 -1.421285
v -0.500000 1.476418 -1.421285
v 0.500000 1.476418 -1.421284
v 0.500000 1.476418 -1.421284
vt 0.550469 0.458270
vt 0.550469 0.197896
vt 0.743469 0.000000
vt 0.128265 0.658965
vt 0.256530 1.000000
vt 0.128265 1.000000
vt 0.371735 0.658965
vt 0.178734 0.200695
vt 0.371735 0.000000
vt 0.000000 0.658965
vt 0.128265 1.000000
vt 0.000000 1.000000
vt 0.871735 0.000000
vt 0.743469 0.658965
vt 0.743470 0.000000
vt 0.871735 0.658965
vt 1.000000 0.000000
vt 1.000000 0.658965
vt 0.412009 0.776638
vt 0.373139 0.658965
vt 0.412009 0.658965
vt 0.139864 0.200695
vt 0.000000 0.658965
vt 0.000000 0.000000
vt 0.371735 0.000000
vt 0.511599 0.458270
vt 0.371735 0.658965
vt 0.567487 0.776638
vt 0.528617 0.658965
vt 0.567487 0.658965
vt 0.295400 0.658965
vt 0.334270 0.776638
vt 0.295400 0.776638
vt 0.489748 0.658965
vt 0.528617 0.776638
vt 0.489748 0.776638
vt 0.373139 0.776638
vt 0.334270 0.658965
vt 0.373139 0.658965
vt 0.139864 0.461069
vt 0.000000 0.658965
vt 0.139864 0.200695
vt 0.371735 0.000000
vt 0.511599 0.162237
vt 0.511599 0.197896
vt 0.412009 0.658965
vt 0.450878 0.776638
vt 0.412009 0.776638
vt 0.256530 0.658965
vt 0.295400 0.776638
vt 0.256530 0.776638
vt 0.450878 0.658965
vt 0.489748 0.776638
vt 0.450878 0.776638
vt 0.743469 0.658965
vt 0.371735 0.658965
vt 0.550469 0.493930
vt 0.511599 0.493930
vt 0.550469 0.162237
vt 0.371735 0.000000
vt 0.511599 0.197896
vt 0.256530 0.658965
vt 0.000000 0.658965
vt 0.178734 0.496729
vt 0.139864 0.496729
vt 0.178734 0.461069
vt 0.178734 0.165036
vt 0.000000 0.000000
vt 0.128265 0.658965
vt 0.871735 0.658965
vt 0.871735 0.000000
vt 0.373139 0.776638
vt 0.178734 0.165036
vt 0.139864 0.165036
vt 0.550469 0.458270
vt 0.511599 0.493930
vt 0.528617 0.776638
vt 0.334270 0.658965
vt 0.528617 0.658965
vt 0.334270 0.776638
vt 0.178734 0.200695
vt 0.178734 0.461069
vt 0.139864 0.496729
vt 0.550469 0.162237
vt 0.550469 0.458270
vt 0.450878 0.658965
vt 0.295400 0.658965
vt 0.489748 0.658965
vn -1.0000 0.0000 0.0000
vn 0.0000 0.0000 -1.0000
vn 1.0000 0.0000 0.0000
vn 0.0000 0.0000 1.0000
vn 0.0000 -1.0000 0.0000
vn 0.0000 1.0000 0.0000
s off
f 63/1/1 77/2/1 25/3/1
f 34/4/2 36/5/2 26/6/2
f 37/7/3 67/8/3 42/9/3
f 46/10/4 28/11/4 43/12/4
f 7/13/5 1/14/5 3/15/5
f 32/16/6 44/17/6 39/18/6
f 66/19/4 61/20/4 62/21/4
f 57/22/3 40/23/3 6/24/3
f 35/25/1 60/26/1 2/27/1
f 51/28/6 16/29/6 56/30/6
f 10/31/2 48/32/2 9/33/2
f 12/34/5 13/35/5 11/36/5
f 88/37/4 83/38/4 84/39/4
f 69/40/3 8/41/3 59/42/3
f 4/43/1 82/44/1 75/45/1
f 73/46/6 24/47/6 78/48/6
f 18/49/2 70/50/2 17/51/2
f 20/52/5 21/53/5 19/54/5
f 27/55/1 29/56/1 55/57/1
f 29/56/1 52/58/1 55/57/1
f 85/59/1 33/60/1 25/3/1
f 63/1/1 74/61/1 77/2/1
f 77/2/1 85/59/1 25/3/1
f 25/3/1 27/55/1 63/1/1
f 27/55/1 55/57/1 63/1/1
f 34/4/2 38/62/2 36/5/2
f 37/7/3 41/63/3 87/64/3
f 41/63/3 80/65/3 87/64/3
f 87/64/3 72/66/3 37/7/3
f 72/66/3 67/8/3 37/7/3
f 50/67/3 45/68/3 42/9/3
f 67/8/3 50/67/3 42/9/3
f 46/10/4 31/69/4 28/11/4
f 7/13/5 5/70/5 1/14/5
f 32/16/6 30/71/6 44/17/6
f 66/19/4 58/72/4 61/20/4
f 6/24/3 49/73/3 47/74/3
f 47/74/3 57/22/3 6/24/3
f 35/25/1 64/75/1 60/26/1
f 60/26/1 53/76/1 2/27/1
f 51/28/6 68/77/6 16/29/6
f 10/31/2 54/78/2 48/32/2
f 12/34/5 14/79/5 13/35/5
f 88/37/4 81/80/4 83/38/4
f 59/42/3 15/81/3 71/82/3
f 69/40/3 79/83/3 8/41/3
f 59/42/3 71/82/3 69/40/3
f 4/43/1 86/84/1 82/44/1
f 75/45/1 65/85/1 4/43/1
f 73/46/6 23/86/6 24/47/6
f 18/49/2 76/87/2 70/50/2
f 20/52/5 22/88/5 21/53/5
