# Blender v2.79 (sub 0) OBJ File: 'grass.blend'
# www.blender.org
o Cube.001_Cube.000
v -0.014652 -0.024250 0.153230
v 0.002241 0.549372 0.153230
v -0.014652 -0.024250 -0.133581
v 0.002241 0.549372 -0.133581
v 0.035348 -0.024250 0.153230
v 0.052242 0.549372 0.153230
v 0.035348 -0.024250 -0.133581
v 0.052242 0.549372 -0.133581
v 0.005713 1.167646 0.133316
v 0.005713 1.167646 -0.113668
v 0.048770 1.167646 -0.113668
v 0.048770 1.167646 0.133316
v -0.009675 1.653800 0.102994
v -0.009675 1.653800 -0.083346
v 0.022810 1.653800 -0.083346
v 0.022810 1.653800 0.102994
v -0.044939 2.068690 0.067368
v -0.044939 2.068690 -0.047720
v -0.024876 2.068690 -0.047720
v -0.024876 2.068690 0.067368
v -0.082958 2.382016 0.027763
v -0.082958 2.382016 -0.008114
v -0.076704 2.382016 -0.008114
v -0.076704 2.382016 0.027763
v -0.101687 2.492397 0.012439
v -0.101687 2.492397 0.007209
v -0.100775 2.492397 0.007209
v -0.100775 2.492397 0.012439
vn -0.9996 0.0294 0.0000
vn 0.0000 0.0000 -1.0000
vn 0.9996 -0.0294 0.0000
vn 0.0000 0.0000 1.0000
vn 0.0000 -1.0000 0.0000
vn 0.0000 0.0322 -0.9995
vn 0.9986 0.0533 0.0000
vn 1.0000 0.0056 0.0000
vn -1.0000 0.0056 0.0000
vn 0.0000 0.0322 0.9995
vn -0.9964 -0.0847 0.0000
vn -0.9995 -0.0316 0.0000
vn 0.0000 0.0622 0.9981
vn 0.0000 0.0622 -0.9981
vn 0.0000 0.1254 0.9921
vn 0.0000 0.0856 0.9963
vn 0.0000 0.0856 -0.9963
vn 0.9935 0.1142 0.0000
vn 0.9770 0.2131 0.0000
vn 0.0000 0.1254 -0.9921
vn 0.9866 0.1632 0.0000
vn -0.9927 -0.1205 0.0000
vn 0.0000 1.0000 0.0000
vn -0.9859 -0.1673 0.0000
vn 0.0000 0.1375 0.9905
vn 0.0000 0.1375 -0.9905
s off
f 2//1 3//1 1//1
f 4//2 7//2 3//2
f 8//3 5//3 7//3
f 5//4 2//4 1//4
f 7//5 1//5 3//5
f 4//6 11//6 8//6
f 11//7 16//7 12//7
f 8//8 12//8 6//8
f 2//9 10//9 4//9
f 6//10 9//10 2//10
f 13//11 18//11 14//11
f 9//12 14//12 10//12
f 9//13 16//13 13//13
f 10//14 15//14 11//14
f 17//15 24//15 21//15
f 13//16 20//16 17//16
f 14//17 19//17 15//17
f 15//18 20//18 16//18
f 23//19 28//19 24//19
f 18//20 23//20 19//20
f 19//21 24//21 20//21
f 17//22 22//22 18//22
f 26//23 28//23 27//23
f 21//24 26//24 22//24
f 21//25 28//25 25//25
f 22//26 27//26 23//26
f 2//1 4//1 3//1
f 4//2 8//2 7//2
f 8//3 6//3 5//3
f 5//4 6//4 2//4
f 7//5 5//5 1//5
f 4//6 10//6 11//6
f 11//7 15//7 16//7
f 8//8 11//8 12//8
f 2//9 9//9 10//9
f 6//10 12//10 9//10
f 13//11 17//11 18//11
f 9//12 13//12 14//12
f 9//13 12//13 16//13
f 10//14 14//14 15//14
f 17//15 20//15 24//15
f 13//16 16//16 20//16
f 14//17 18//17 19//17
f 15//18 19//18 20//18
f 23//19 27//19 28//19
f 18//20 22//20 23//20
f 19//21 23//21 24//21
f 17//22 21//22 22//22
f 26//23 25//23 28//23
f 21//24 25//24 26//24
f 21//25 24//25 28//25
f 22//26 26//26 27//26
