# Blender v2.90.0 OBJ File: 'rock.blend'
# www.blender.org
o Rock_LOD_rock.001
v 0.209154 0.839686 -0.290314
v 0.575359 0.871962 -0.054291
v -0.665445 0.322666 -0.602671
v -0.360715 0.192645 0.808550
v -0.785793 0.110980 0.350587
v 0.579905 0.751286 0.327737
v 0.186310 0.955255 -0.180773
v -0.474604 1.140647 0.278010
v -0.224830 -0.217057 -0.001204
v 0.673218 0.386831 -0.276199
v -0.612161 0.427396 -0.692688
v -0.258256 0.260493 0.875306
v 0.501386 0.253308 1.076186
v -0.077428 1.026264 -0.022532
v 0.009333 0.710272 1.114620
v -0.505290 -0.161338 -0.320566
v 0.690635 0.264491 -0.318704
v 0.477748 0.802710 0.401607
v -0.076186 0.453208 1.100360
v 0.012396 -0.104015 0.947828
v 0.153779 0.247073 1.176586
v 0.075694 0.826991 1.044829
v 0.413720 0.194941 1.119543
v 0.579222 -0.163341 0.678966
v 0.752954 0.126969 0.859346
v -0.581565 0.310281 0.760707
v -0.351103 -0.016081 0.640386
v -0.385385 0.480446 0.839806
v -0.020765 -0.382143 0.320260
v 0.085379 -0.283338 0.614636
v 0.233323 0.893670 0.541257
v 0.799366 -0.021243 0.378662
v 0.843466 0.531729 0.782202
v 0.519348 0.822551 0.817960
v 0.849054 0.217200 0.384790
v 0.876318 0.333410 0.527108
v -0.632236 -0.017374 0.548027
v -0.705829 0.656814 0.609856
v -0.425154 -0.187035 0.321061
v -0.518588 1.078957 0.518727
v -0.171921 1.005148 0.712785
v 0.431674 -0.182283 -0.016002
v 0.111664 -0.315906 0.022221
v 0.148741 1.142079 0.218539
v 0.729594 0.734340 0.075869
v 0.778739 0.661805 0.516495
v 0.947085 0.274534 -0.011609
v 0.916824 0.437447 0.142648
v 0.920817 0.546365 0.279147
v -0.970220 0.083300 -0.056624
v -1.019246 0.517285 0.109520
v -0.816124 -0.124988 -0.100568
v -0.770047 0.805925 0.235239
v -0.116354 -0.193306 -0.356457
v 0.276513 -0.090369 -0.339258
v 0.766421 -0.047238 -0.054610
v 0.734956 0.549398 -0.148803
v -1.013652 0.616489 -0.034961
v -0.982017 0.582339 -0.046808
v -0.944466 0.748197 -0.292991
v -0.948039 0.738526 -0.294808
v -0.995209 0.636715 -0.093635
v -0.798495 0.118683 -0.412684
v -0.906454 0.256970 -0.375740
v -0.593100 1.124965 -0.196809
v -0.737198 0.923522 -0.049854
v -0.488724 1.160698 0.162324
v -0.358619 0.002927 -0.585395
v -0.019912 -0.099120 -0.596187
v 0.461809 0.087921 -0.587860
v 0.087954 0.780548 -0.527263
v 0.335648 1.026759 0.116931
v 0.461785 0.390139 -0.649244
v 0.641134 0.730793 -0.241462
v -0.794145 0.638772 -0.498114
v -0.410507 1.074191 -0.415045
v -0.553917 0.777896 -0.661403
v -0.147351 0.081144 -0.756342
v -0.126806 1.032328 -0.518335
v -0.131483 1.015131 -0.528176
v -0.110821 1.032513 -0.517676
v -0.016287 1.032845 -0.435224
v 0.015841 0.792098 -0.650293
v 0.273679 0.581482 -0.753663
v 0.450440 0.661096 -0.507542
v -0.048828 0.293115 -0.903188
v -0.229531 0.983029 -0.593507
v -0.326715 0.501134 -0.781777
vt 0.765055 0.453173
vt 0.724610 0.477142
vt 0.718302 0.435170
vt 0.760210 0.427368
vt 0.749358 0.367967
vt 0.541759 0.838183
vt 0.469861 0.864234
vt 0.458897 0.812434
vt 0.455213 0.758454
vt 0.409627 0.734328
vt 0.951364 0.745195
vt 0.868292 0.731975
vt 0.921809 0.680040
vt 0.573687 0.259000
vt 0.554607 0.306593
vt 0.557885 0.211710
vt 0.527040 0.053763
vt 0.476835 0.146036
vt 0.500553 0.074453
vt 0.247494 0.655850
vt 0.287985 0.669561
vt 0.234523 0.675337
vt 0.383132 0.755254
vt 0.382681 0.678707
vt 0.328008 0.120082
vt 0.345847 0.279343
vt 0.291896 0.186005
vt 0.640458 0.262623
vt 0.701144 0.214788
vt 0.683609 0.350801
vt 0.243258 0.747253
vt 0.253338 0.657984
vt 0.297734 0.735700
vt 0.558230 0.623594
vt 0.574461 0.546164
vt 0.616330 0.580004
vt 0.648032 0.186950
vt 0.708165 0.056915
vt 0.397283 0.172509
vt 0.430426 0.267315
vt 0.515253 0.263234
vt 0.309665 0.122693
vt 0.144971 0.041824
vt 0.248607 0.029363
vt 0.511637 0.661382
vt 0.591984 0.670259
vt 0.528614 0.735108
vt 0.227727 0.575472
vt 0.151751 0.583302
vt 0.210131 0.529129
vt 0.563236 0.569235
vt 0.538891 0.566207
vt 0.545449 0.438300
vt 0.559879 0.492529
vt 0.530882 0.454424
vt 0.969002 0.834418
vt 0.936310 0.838828
vt 0.982636 0.619804
vt 0.988726 0.675822
vt 0.916179 0.632806
vt 0.097807 0.862884
vt 0.131050 0.826593
vt 0.097801 0.919875
vt 0.084243 0.387837
vt 0.101318 0.334631
vt 0.182544 0.316126
vt 0.468020 0.680071
vt 0.509801 0.661547
vt 0.518099 0.716587
vt 0.483126 0.644752
vt 0.257644 0.459873
vt 0.229702 0.401185
vt 0.309848 0.418770
vt 0.103131 0.235888
vt 0.032481 0.245447
vt 0.201198 0.202251
vt 0.246745 0.284499
vt 0.506242 0.581994
vt 0.521521 0.744500
vt 0.248477 0.587444
vt 0.621953 0.686769
vt 0.598747 0.785501
vt 0.586719 0.704930
vt 0.398743 0.820298
vt 0.825106 0.610339
vt 0.887264 0.569052
vt 0.906917 0.646223
vt 0.911783 0.766391
vt 0.786750 0.458471
vt 0.775016 0.389977
vt 0.801594 0.428894
vt 0.502894 0.370472
vt 0.513687 0.263710
vt 0.778371 0.020845
vt 0.796948 0.002139
vt 0.796487 0.076092
vt 0.185456 0.866283
vt 0.334566 0.556654
vt 0.332643 0.526869
vt 0.352230 0.515139
vt 0.108382 0.963660
vt 0.210091 0.201140
vt 0.182716 0.265263
vt 0.280792 0.351269
vt 0.186139 0.347567
vt 0.147366 0.414356
vt 0.029041 0.261128
vt 0.100906 0.335060
vt 0.029743 0.323324
vt 0.319009 0.676939
vt 0.740041 0.797395
vt 0.710718 0.760052
vt 0.731062 0.743608
vt 0.166276 0.684863
vt 0.241724 0.766316
vt 0.197708 0.714404
vt 0.619700 0.682305
vt 0.115587 0.400104
vt 0.577538 0.277705
vt 0.631822 0.384968
vt 0.543628 0.427917
vt 0.705860 0.803979
vt 0.710488 0.811042
vt 0.507639 0.366885
vt 0.033786 0.619897
vt 0.112474 0.527298
vt 0.151728 0.583286
vt 0.203063 0.660422
vt 0.148743 0.691839
vt 0.939946 0.652540
vt 0.965405 0.684968
vt 0.554365 0.210158
vt 0.632130 0.187726
vt 0.605123 0.245189
vt 0.192299 0.854460
vt 0.270338 0.931353
vt 0.784115 0.559053
vt 0.789220 0.585740
vt 0.765952 0.573854
vt 0.824954 0.610475
vt 0.741123 0.682853
vt 0.741745 0.626151
vt 0.837529 0.714099
vt 0.921481 0.766856
vt 0.798860 0.758097
vt 0.410821 0.884693
vt 0.501839 0.951763
vt 0.620294 0.111394
vt 0.614868 0.016834
vt 0.671789 0.022479
vt 0.871118 0.387323
vt 0.852501 0.443577
vt 0.829807 0.432966
vt 0.589064 0.918907
vt 0.865875 0.219380
vt 0.772519 0.285694
vt 0.739925 0.257290
vt 0.642593 0.384492
vt 0.765738 0.160487
vt 0.741881 0.124184
vt 0.808579 0.081839
vt 0.465417 0.387283
vt 0.178557 0.784875
vt 0.076069 0.757932
vt 0.501131 0.348111
vt 0.468293 0.346356
vt 0.796339 0.756924
vt 0.833754 0.694044
vt 0.556092 0.432571
vt 0.557696 0.480877
vt 0.810139 0.457920
vt 0.029833 0.625083
vt 0.234540 0.314116
vt 0.812764 0.216035
vt 0.774860 0.184598
vt 0.973943 0.550528
vt 0.912418 0.558181
vt 0.880777 0.622591
vt 0.144779 0.145379
vt 0.097040 0.104190
vt 0.853718 0.557730
vt 0.883653 0.572018
vt 0.292415 0.585955
vt 0.588009 0.753677
vt 0.491317 0.606366
vt 0.429223 0.845383
vt 0.930048 0.552585
vt 0.964491 0.536552
vt 0.612646 0.110284
vt 0.777647 0.760388
vt 0.779620 0.764704
vt 0.769766 0.762359
vt 0.784379 0.762775
vt 0.735739 0.703763
vt 0.635458 0.791823
vt 0.023192 0.336738
vt 0.088754 0.336513
vt 0.063445 0.379366
vt 0.667074 0.611448
vt 0.655487 0.587386
vt 0.071597 0.883758
vt 0.069816 0.928596
vt 0.818333 0.812459
vt 0.809791 0.802798
vt 0.403849 0.858923
vt 0.401246 0.851951
vt 0.270874 0.954492
vt 0.268133 0.956673
vt 0.282711 0.175577
vt 0.111707 0.093396
vt 0.090919 0.871161
vt 0.117614 0.773152
vt 0.150369 0.985843
vt 0.633756 0.403461
vt 0.623345 0.448424
vt 0.036450 0.846213
vt 0.629977 0.303491
vt 0.541440 0.530646
vt 0.660675 0.716971
vt 0.826359 0.318315
vt 0.868469 0.275423
vt 0.549833 0.212808
vt 0.836287 0.133081
vt 0.887185 0.110253
vt 0.853810 0.380251
vt 0.643243 0.781560
vt 0.152941 0.688606
vt 0.465730 0.644675
vt 0.434229 0.733121
vt 0.427508 0.644687
vt 0.822027 0.837249
vt 0.912645 0.851035
vt 0.499456 0.135948
vt 0.543464 0.027443
vt 0.104305 0.235845
vt 0.781448 0.032183
vt 0.348206 0.800572
vt 0.354176 0.807392
vt 0.352799 0.816101
vt 0.835701 0.702645
vt 0.046453 0.746953
vt 0.010799 0.640402
vt 0.542324 0.794807
vt 0.715683 0.680121
vt 0.031181 0.597717
vt 0.731067 0.166298
vt 0.269828 0.959662
vt 0.265539 0.972209
vt 0.200636 0.984876
vn 0.2861 0.8458 -0.4502
vn 0.5879 0.6998 -0.4058
vn 0.4405 0.7439 -0.5026
vn 0.4801 0.7885 -0.3845
vn 0.3660 0.8269 -0.4269
vn 0.6499 0.6650 -0.3680
vn 0.6189 0.5870 -0.5219
vn -0.6248 -0.1215 -0.7713
vn -0.6985 0.2402 -0.6741
vn -0.7724 -0.1074 -0.6260
vn -0.4874 -0.4104 0.7708
vn -0.5491 -0.0996 0.8298
vn -0.3629 -0.3590 0.8599
vn -0.7804 0.5273 0.3362
vn -0.8167 0.4742 0.3288
vn -0.7782 0.5764 0.2494
vn 0.4759 0.8655 0.1563
vn 0.5255 0.8332 0.1720
vn 0.4848 0.8664 0.1196
vn 0.6816 0.5248 -0.5100
vn 0.7691 0.4156 -0.4856
vn -0.4404 -0.8017 0.4041
vn -0.3464 -0.9098 0.2284
vn -0.3943 -0.8189 0.4170
vn -0.4190 -0.6868 0.5939
vn 0.6091 0.7274 0.3161
vn 0.5839 0.7747 0.2427
vn 0.8337 0.3022 -0.4622
vn 0.8221 0.4495 -0.3494
vn 0.7981 0.3843 -0.4641
vn -0.2892 -0.7642 0.5765
vn -0.2162 -0.9750 0.0515
vn -0.3967 0.3584 0.8451
vn -0.3617 0.2929 0.8851
vn -0.5167 0.4027 0.7556
vn -0.6016 0.1972 0.7741
vn 0.3667 -0.9269 0.0801
vn 0.3615 -0.9319 -0.0288
vn 0.2593 -0.9326 -0.2512
vn 0.7098 0.5195 -0.4757
vn 0.7414 0.2722 -0.6134
vn 0.7863 0.2618 -0.5596
vn 0.6166 0.7827 0.0846
vn 0.3513 0.9344 0.0593
vn 0.6950 0.6981 0.1724
vn 0.8303 0.4707 -0.2985
vn 0.2672 0.2184 0.9386
vn 0.2605 0.2922 0.9202
vn 0.4911 0.0658 0.8686
vn -0.6409 -0.5871 -0.4945
vn -0.7691 -0.4828 -0.4189
vn -0.5355 -0.5753 -0.6183
vn -0.5234 -0.4890 -0.6978
vn -0.4589 -0.6014 -0.6539
vn -0.5338 -0.1356 -0.8347
vn 0.0277 0.9741 0.2245
vn 0.3957 0.8364 0.3794
vn 0.0139 0.9855 0.1691
vn -0.2545 -0.8064 -0.5338
vn -0.4581 -0.7491 -0.4786
vn -0.2093 -0.8091 -0.5491
vn 0.2617 -0.8667 -0.4247
vn 0.3015 -0.8775 -0.3731
vn 0.3407 -0.9155 -0.2138
vn -0.3374 -0.9071 -0.2517
vn -0.2414 -0.9601 -0.1411
vn 0.8125 -0.0077 -0.5829
vn 0.6934 0.0652 -0.7176
vn -0.4204 0.4421 -0.7923
vn -0.1955 0.1479 -0.9695
vn -0.7870 -0.0835 -0.6113
vn -0.7408 0.6504 0.1678
vn -0.7643 0.6179 0.1843
vn -0.5203 -0.0678 0.8513
vn 0.2842 -0.6092 0.7404
vn 0.5473 -0.3498 0.7603
vn 0.1497 0.8291 -0.5387
vn 0.1065 0.9732 -0.2040
vn 0.1927 0.9463 -0.2595
vn 0.1877 0.9776 -0.0948
vn -0.2575 -0.9347 -0.2451
vn -0.1846 -0.9774 -0.1032
vn -0.1194 -0.8127 -0.5703
vn -0.1333 -0.8178 -0.5599
vn 0.6140 -0.2763 -0.7394
vn 0.2148 -0.5921 -0.7767
vn 0.3282 -0.4003 -0.8556
vn -0.7584 0.6429 0.1072
vn 0.3747 0.8894 0.2617
vn -0.5566 -0.5581 0.6154
vn -0.5517 -0.2966 0.7795
vn -0.8021 0.5763 0.1564
vn 0.3933 0.3386 0.8548
vn 0.4236 0.3631 0.8299
vn 0.3568 -0.9094 -0.2138
vn 0.2843 -0.8874 -0.3629
vn -0.2656 -0.5496 -0.7921
vn -0.0063 0.9999 0.0150
vn 0.0969 0.9948 -0.0318
vn -0.0071 0.6475 -0.7620
vn -0.1788 0.8875 -0.4247
vn -0.5317 0.6320 -0.5638
vn -0.8189 0.1653 -0.5496
vn 0.0508 0.4219 -0.9052
vn -0.8390 -0.3393 0.4254
vn -0.8592 -0.1886 0.4757
vn -0.7981 -0.4572 0.3925
vn 0.2191 -0.7755 0.5921
vn 0.1991 -0.7224 0.6622
vn -0.0766 -0.9955 0.0562
vn -0.0183 0.4494 -0.8931
vn -0.0233 0.4806 -0.8766
vn 0.9254 -0.3483 0.1494
vn 0.9699 -0.1497 0.1919
vn 0.9838 -0.1521 0.0950
vn 0.9720 -0.1987 0.1256
vn 0.9700 -0.1150 0.2143
vn 0.9036 -0.3660 0.2226
vn 0.4514 -0.0427 -0.8913
vn -0.5501 0.3591 0.7539
vn -0.2815 0.0405 0.9587
vn 0.2288 0.9229 0.3096
vn -0.5482 0.5015 -0.6693
vn 0.0676 -0.5636 0.8233
vn 0.3105 -0.7513 0.5824
vn 0.2317 0.9523 0.1986
vn -0.7392 -0.5751 0.3505
vn -0.8377 -0.2978 0.4579
vn 0.9709 -0.2311 0.0621
vn -0.4525 -0.3373 -0.8255
vn 0.3587 -0.9117 -0.2004
vn 0.3521 -0.9208 -0.1677
vn 0.6965 0.7142 0.0696
vn -0.5545 -0.2842 -0.7822
vn -0.7668 -0.4869 -0.4182
vn -0.8394 -0.1436 0.5242
vn -0.7371 -0.5435 -0.4017
vn -0.7467 0.6621 0.0632
vn 0.1311 -0.6050 -0.7853
vn 0.7633 -0.2995 -0.5725
vn 0.7299 -0.3298 -0.5987
vn -0.8350 0.5159 0.1913
vn -0.7457 0.6456 0.1648
vn -0.9868 -0.1037 -0.1241
vn -0.9827 -0.1368 -0.1251
vn 0.2719 0.4775 -0.8355
vn 0.0266 0.4935 -0.8693
vn -0.0120 0.9999 0.0097
vn 0.0379 0.9750 -0.2191
vn 0.3923 -0.9172 0.0703
vn 0.1894 0.8038 -0.5639
vn 0.0607 0.9642 0.2582
vn 0.8210 0.4344 -0.3706
vn 0.9513 -0.2634 0.1605
vn 0.8735 -0.4854 -0.0373
vn -0.4512 0.3234 0.8318
vn 0.7486 -0.6097 0.2603
vn 0.3069 0.8790 -0.3650
vn -0.9752 -0.0101 -0.2213
vn -0.9770 -0.0295 -0.2113
vn -0.8376 -0.0642 0.5426
vn 0.5103 0.2438 0.8247
vn 0.3411 0.2921 0.8935
vn -0.4217 0.6298 0.6524
vn 0.7022 0.3528 -0.6184
vn -0.7444 0.6461 0.1686
vn 0.5216 0.6061 -0.6005
vn 0.4350 0.3551 -0.8274
s 1
f 85/1/1 71/2/2 1/3/3
f 85/4/1 1/3/3 2/5/4
f 84/6/5 83/7/6 71/8/2
f 1/9/3 71/8/2 7/10/7
f 63/11/8 75/12/9 3/13/10
f 4/14/11 12/15/12 26/16/13
f 51/17/14 38/18/15 53/19/16
f 6/20/17 45/21/18 18/22/19
f 7/10/7 82/23/20 72/24/21
f 30/25/22 39/26/23 29/27/24
f 27/28/25 39/29/23 30/30/22
f 72/31/26 18/32/19 2/33/27
f 57/34/28 48/35/29 47/36/30
f 37/37/31 52/38/32 39/29/23
f 40/39/33 38/18/34 41/40/35
f 26/16/13 12/15/12 28/41/36
f 30/42/37 32/43/38 24/44/39
f 74/45/40 10/46/41 85/47/42
f 46/48/43 34/49/44 33/50/45
f 48/51/29 57/34/28 45/52/46
f 21/53/47 23/54/48 13/55/49
f 52/56/50 50/57/51 63/11/52
f 68/58/53 16/59/54 11/60/55
f 8/61/56 44/62/57 67/63/58
f 78/64/59 69/65/60 54/66/61
f 7/10/7 2/67/4 1/9/3
f 74/68/40 85/69/1 2/70/4
f 63/71/52 16/72/54 52/73/50
f 55/74/62 70/75/63 43/76/64
f 29/27/65 39/26/23 9/77/66
f 57/34/28 74/45/40 45/78/46
f 85/79/1 84/6/5 71/8/2
f 46/80/43 45/21/18 6/20/17
f 17/81/67 73/82/68 10/83/41
f 7/10/7 71/8/2 82/84/20
f 77/85/69 88/86/70 11/87/55
f 64/88/71 75/12/9 63/11/8
f 53/89/16 66/90/72 58/91/73
f 19/92/74 28/93/36 12/15/12
f 13/94/49 23/95/75 25/96/76
f 44/62/77 14/97/78 67/63/79
f 46/98/43 6/99/17 18/100/19
f 14/97/78 65/101/80 67/63/79
f 29/27/65 9/77/66 43/102/81
f 54/103/82 43/102/81 9/77/66
f 39/26/23 52/104/32 9/77/66
f 54/105/61 16/72/83 68/106/84
f 70/107/85 69/108/86 86/109/87
f 2/33/27 18/32/19 45/110/18
f 53/111/16 8/112/88 66/113/72
f 31/114/89 72/115/26 44/116/57
f 17/117/67 57/34/28 47/36/30
f 54/66/61 68/118/84 78/64/59
f 4/119/11 20/120/90 21/121/91
f 40/122/92 53/111/16 38/123/15
f 4/119/11 21/121/91 12/15/12
f 21/121/91 19/124/74 12/15/12
f 22/125/93 13/126/49 34/127/94
f 18/128/19 31/129/89 34/49/44
f 69/65/95 70/75/63 54/66/96
f 11/60/55 16/59/54 3/130/97
f 16/59/54 63/131/52 3/130/97
f 26/132/13 37/133/31 27/134/25
f 14/135/78 72/115/98 82/136/99
f 87/137/100 77/138/69 76/139/101
f 77/140/69 65/141/102 76/142/101
f 75/143/9 64/144/71 61/145/103
f 87/146/100 83/7/104 88/147/70
f 5/148/105 51/149/106 50/150/107
f 23/151/75 30/152/108 24/153/109
f 54/66/82 52/73/32 16/72/110
f 46/48/43 18/128/19 34/49/44
f 84/6/111 86/154/112 88/147/70
f 32/155/113 48/156/114 49/157/115
f 27/28/25 30/30/22 20/158/90
f 36/159/116 33/160/117 25/161/118
f 73/82/68 86/154/87 84/6/119
f 37/37/31 39/29/23 27/28/25
f 15/162/120 19/124/74 21/121/121
f 31/129/89 44/163/57 41/164/122
f 28/41/36 19/165/74 15/166/120
f 60/167/123 75/168/9 61/145/103
f 21/169/124 20/120/125 23/170/75
f 53/89/16 58/91/73 51/171/14
f 31/129/89 41/164/122 22/172/126
f 52/38/127 37/37/128 5/148/105
f 52/73/32 54/66/82 9/173/66
f 32/155/113 49/157/115 35/174/129
f 25/161/118 32/155/113 35/174/129
f 36/175/116 25/161/118 35/174/129
f 49/157/115 36/175/116 35/174/129
f 78/176/130 11/60/55 88/177/70
f 77/85/69 11/178/55 75/168/9
f 43/76/64 70/75/63 42/179/131
f 42/179/131 70/75/63 56/180/132
f 87/181/100 88/182/70 77/85/69
f 57/34/28 17/81/67 10/46/41
f 49/183/133 45/21/18 46/80/43
f 10/46/41 73/184/68 85/47/42
f 45/185/46 74/45/40 2/70/4
f 82/186/20 71/8/2 83/7/6
f 88/187/70 86/188/134 78/176/130
f 50/57/51 64/144/135 63/11/52
f 26/132/136 5/189/105 37/133/128
f 58/190/137 59/191/137 51/192/137
f 62/193/138 58/190/73 66/194/72
f 70/195/85 86/154/87 73/82/68
f 86/196/87 69/197/86 78/198/139
f 56/199/140 17/117/67 47/200/141
f 8/201/88 67/63/142 65/202/143
f 11/60/55 78/176/130 68/58/53
f 64/144/71 59/203/144 62/204/145
f 26/132/13 27/134/25 4/119/11
f 83/7/104 80/205/146 81/206/147
f 82/136/99 81/207/148 79/208/149
f 29/209/150 42/179/131 32/43/38
f 32/43/38 42/179/131 56/210/132
f 10/46/41 74/45/40 57/34/28
f 8/211/56 41/164/122 44/212/57
f 82/136/99 65/213/80 14/135/78
f 72/115/151 14/135/78 44/163/77
f 20/214/125 30/215/108 23/170/75
f 40/216/152 41/164/122 8/211/56
f 27/217/25 20/120/90 4/119/11
f 49/218/153 48/35/29 45/78/46
f 56/199/140 70/219/85 17/117/67
f 47/220/154 32/155/113 56/221/155
f 41/40/35 38/18/34 26/222/156
f 75/168/9 65/141/102 77/140/69
f 25/223/118 24/224/157 32/155/113
f 25/225/76 23/151/75 24/153/109
f 29/209/150 32/43/38 30/42/37
f 28/41/36 41/40/35 26/16/156
f 28/41/36 15/166/120 41/40/35
f 17/81/67 70/226/85 73/82/68
f 33/50/45 49/183/133 46/48/43
f 5/148/105 50/150/107 52/38/127
f 22/172/126 34/127/44 31/227/89
f 2/228/4 7/229/7 72/230/158
f 51/231/159 64/144/71 50/232/160
f 38/233/161 51/234/106 26/222/136
f 43/76/64 54/66/96 55/74/62
f 70/75/63 55/235/62 54/66/96
f 33/160/162 13/236/49 25/161/76
f 15/237/163 21/238/47 13/239/49
f 3/13/10 75/240/9 11/87/55
f 84/6/111 88/147/70 83/7/104
f 22/172/164 41/241/35 15/242/120
f 85/47/42 73/184/68 84/243/165
f 34/49/94 13/126/49 33/50/162
f 40/122/92 8/112/88 53/111/16
f 8/112/88 65/244/143 66/113/72
f 31/114/89 18/128/19 72/115/26
f 22/125/93 15/245/163 13/126/49
f 32/155/113 47/220/154 48/156/114
f 36/159/116 49/246/115 33/160/117
f 60/167/123 65/141/102 75/168/9
f 26/132/136 51/234/106 5/189/105
f 65/141/143 60/167/166 66/194/72
f 60/167/166 62/193/138 66/194/72
f 62/204/145 61/145/103 64/144/71
f 64/144/71 51/231/159 59/203/144
f 81/206/167 82/84/20 83/7/6
f 83/7/104 87/146/100 80/205/146
f 79/208/168 80/247/146 87/248/100
f 87/248/100 76/249/101 79/208/149
f 76/249/101 65/213/80 82/136/99
f 79/208/149 76/249/101 82/136/99
f 29/209/150 43/76/64 42/179/131
