# Blender v2.79 (sub 0) OBJ File: 'flower.blend'
# www.blender.org
o Stalk_Cylinder.001
v 0.001811 1.355442 -0.278057
v 0.001811 1.417212 -0.278057
v 0.103887 1.355442 -0.244890
v 0.103887 1.417212 -0.244890
v 0.166973 1.355442 -0.158060
v 0.166973 1.417212 -0.158060
v 0.166973 1.355442 -0.050731
v 0.166973 1.417212 -0.050731
v 0.103887 1.355442 0.036099
v 0.103887 1.417212 0.036099
v 0.001811 1.355442 0.069265
v 0.001811 1.417212 0.069265
v -0.100264 1.355442 0.036099
v -0.100264 1.417212 0.036099
v -0.163350 1.355442 -0.050731
v -0.163350 1.417212 -0.050731
v -0.163350 1.355442 -0.158060
v -0.163350 1.417212 -0.158060
v -0.100264 1.355442 -0.244890
v -0.100264 1.417212 -0.244890
v 0.079754 1.455737 -0.211674
v 0.001811 1.455737 -0.236999
v 0.127925 1.455737 -0.145372
v 0.127925 1.455737 -0.063419
v 0.079754 1.455737 0.002883
v 0.001811 1.455737 0.028208
v -0.076131 1.455737 0.002883
v -0.124302 1.455737 -0.063419
v -0.124302 1.455737 -0.145372
v -0.076131 1.455737 -0.211674
v 0.041837 1.468129 -0.159487
v 0.001811 1.468129 -0.172492
v 0.066575 1.468129 -0.125438
v 0.066575 1.468129 -0.083353
v 0.041837 1.468129 -0.049305
v 0.001811 1.468129 -0.036300
v -0.038214 1.468129 -0.049305
v -0.062952 1.468129 -0.083353
v -0.062952 1.468129 -0.125438
v -0.038214 1.468129 -0.159487
v 0.000000 -0.018809 -0.100000
v 0.000000 0.277776 -0.065113
v 0.058779 -0.018809 -0.080902
v 0.058779 0.277776 -0.046015
v 0.095106 -0.018809 -0.030902
v 0.095106 0.277776 0.003985
v 0.095106 -0.018809 0.030902
v 0.095106 0.277776 0.065789
v 0.058779 -0.018809 0.080902
v 0.058779 0.277776 0.115789
v -0.000000 -0.018809 0.100000
v -0.000000 0.277776 0.134887
v -0.058779 -0.018809 0.080902
v -0.058779 0.277776 0.115789
v -0.095106 -0.018809 0.030902
v -0.095106 0.277776 0.065789
v -0.095106 -0.018809 -0.030902
v -0.095106 0.277776 0.003985
v -0.058779 -0.018809 -0.080902
v -0.058779 0.277776 -0.046015
v 0.058778 0.536675 -0.039605
v -0.000000 0.536675 -0.058703
v 0.095106 0.536675 0.010395
v 0.095106 0.536675 0.072199
v 0.058778 0.536675 0.122199
v -0.000000 0.536675 0.141297
v -0.058779 0.536675 0.122199
v -0.095106 0.536675 0.072199
v -0.095106 0.536675 0.010395
v -0.058779 0.536675 -0.039605
v 0.058778 0.788090 -0.055188
v -0.000000 0.788090 -0.074287
v 0.095106 0.788090 -0.005188
v 0.095106 0.788090 0.056615
v 0.058778 0.788090 0.106615
v -0.000000 0.788090 0.125713
v -0.058779 0.788090 0.106615
v -0.095106 0.788090 0.056615
v -0.095106 0.788090 -0.005188
v -0.058779 0.788090 -0.055188
v 0.058778 1.021399 -0.094767
v -0.000000 1.021399 -0.113866
v 0.095106 1.021399 -0.044767
v 0.095106 1.021399 0.017036
v 0.058778 1.021399 0.067036
v -0.000000 1.021399 0.086135
v -0.058779 1.021399 0.067036
v -0.095106 1.021399 0.017036
v -0.095106 1.021399 -0.044767
v -0.058779 1.021399 -0.094767
v 0.058778 1.226919 -0.150257
v -0.000000 1.226919 -0.169355
v 0.095106 1.226919 -0.100257
v 0.095106 1.226919 -0.038453
v 0.058778 1.226919 0.011547
v -0.000000 1.226919 0.030645
v -0.058779 1.226919 0.011547
v -0.095106 1.226919 -0.038453
v -0.095106 1.226919 -0.100257
v -0.058779 1.226919 -0.150257
v 0.058779 1.399301 -0.216876
v -0.000000 1.399301 -0.235974
v 0.095106 1.399301 -0.166876
v 0.095106 1.399301 -0.105073
v 0.058779 1.399301 -0.055073
v -0.000000 1.399301 -0.035974
v -0.058779 1.399301 -0.055073
v -0.095106 1.399301 -0.105073
v -0.095106 1.399301 -0.166876
v -0.058779 1.399301 -0.216876
vn 0.3090 0.0000 -0.9511
vn 0.8090 0.0000 -0.5878
vn 1.0000 0.0000 0.0000
vn 0.8090 0.0000 0.5878
vn 0.3090 0.0000 0.9511
vn -0.3090 0.0000 0.9511
vn -0.8090 0.0000 0.5878
vn -1.0000 0.0000 0.0000
vn -0.5682 0.7119 -0.4128
vn -0.8090 0.0000 -0.5878
vn -0.3090 0.0000 -0.9511
vn -0.1602 0.9802 0.1164
vn -0.7023 0.7119 0.0000
vn -0.5682 0.7119 0.4128
vn -0.2170 0.7119 0.6680
vn 0.2170 0.7119 0.6680
vn 0.5682 0.7119 0.4128
vn 0.2170 0.7119 -0.6680
vn 0.7023 0.7119 0.0000
vn 0.5682 0.7119 -0.4128
vn -0.2170 0.7119 -0.6680
vn 0.0000 1.0000 -0.0000
vn 0.1602 0.9802 0.1164
vn 0.0612 0.9802 -0.1883
vn -0.1980 0.9802 0.0000
vn 0.0612 0.9802 0.1883
vn 0.1602 0.9802 -0.1164
vn -0.1602 0.9802 -0.1164
vn -0.0612 0.9802 0.1883
vn 0.1980 0.9802 0.0000
vn -0.0612 0.9802 -0.1883
vn 0.3071 0.1112 -0.9452
vn 0.8071 0.0690 -0.5864
vn 0.8071 -0.0690 0.5864
vn 0.3071 -0.1112 0.9452
vn -0.3071 -0.1112 0.9452
vn -0.8071 -0.0690 0.5864
vn -0.8089 0.0146 -0.5877
vn -0.8071 0.0690 -0.5864
vn -0.3071 0.1112 -0.9452
vn -0.8085 0.0364 0.5874
vn -0.8089 -0.0146 0.5877
vn -0.3089 -0.0235 0.9508
vn 0.3089 -0.0235 0.9508
vn 0.8089 -0.0146 0.5877
vn 0.3089 0.0235 -0.9508
vn 0.8089 0.0146 -0.5877
vn -0.3089 0.0235 -0.9508
vn 0.8050 0.0992 0.5849
vn 0.8085 0.0364 0.5874
vn 0.3085 -0.0588 -0.9494
vn 0.3085 0.0588 0.9494
vn 0.8085 -0.0364 -0.5874
vn -0.8085 -0.0364 -0.5874
vn -0.3085 0.0588 0.9494
vn -0.3085 -0.0588 -0.9494
vn 0.2993 -0.2487 -0.9212
vn 0.3051 -0.1593 -0.9389
vn 0.3051 0.1593 0.9389
vn 0.8050 -0.0992 -0.5849
vn -0.8050 -0.0992 -0.5849
vn -0.3051 0.1593 0.9389
vn -0.3051 -0.1593 -0.9389
vn -0.8050 0.0992 0.5849
vn 0.2900 0.3450 0.8927
vn 0.2993 0.2487 0.9212
vn 0.7990 -0.1567 -0.5805
vn -0.7990 -0.1567 -0.5805
vn -0.2993 0.2487 0.9212
vn -0.2993 -0.2487 -0.9212
vn -0.7990 0.1567 0.5805
vn 0.7990 0.1567 0.5805
vn 0.7889 -0.2215 -0.5732
vn -0.7889 -0.2215 -0.5732
vn -0.2900 0.3450 0.8927
vn -0.2900 -0.3450 -0.8927
vn -0.7889 0.2215 0.5732
vn 0.7889 0.2215 0.5732
vn 0.2900 -0.3450 -0.8927
s off
f 2//1 3//1 1//1
f 4//2 5//2 3//2
f 6//3 7//3 5//3
f 8//4 9//4 7//4
f 10//5 11//5 9//5
f 12//6 13//6 11//6
f 14//7 15//7 13//7
f 16//8 17//8 15//8
f 18//9 30//9 20//9
f 18//10 19//10 17//10
f 20//11 1//11 19//11
f 27//12 38//12 28//12
f 16//13 29//13 18//13
f 14//14 28//14 16//14
f 12//15 27//15 14//15
f 10//16 26//16 12//16
f 8//17 25//17 10//17
f 4//18 22//18 21//18
f 6//19 24//19 8//19
f 4//20 23//20 6//20
f 2//21 30//21 22//21
f 37//22 35//22 33//22
f 25//23 34//23 35//23
f 22//24 31//24 21//24
f 28//25 39//25 29//25
f 25//26 36//26 26//26
f 23//27 31//27 33//27
f 29//28 40//28 30//28
f 27//29 36//29 37//29
f 23//30 34//30 24//30
f 22//31 40//31 32//31
f 42//32 43//32 41//32
f 44//33 45//33 43//33
f 46//3 47//3 45//3
f 48//34 49//34 47//34
f 50//35 51//35 49//35
f 51//36 54//36 53//36
f 53//37 56//37 55//37
f 55//8 58//8 57//8
f 58//38 70//38 60//38
f 57//39 60//39 59//39
f 59//40 42//40 41//40
f 68//41 77//41 78//41
f 56//8 69//8 58//8
f 54//42 68//42 56//42
f 52//43 67//43 54//43
f 52//44 65//44 66//44
f 50//45 64//45 65//45
f 44//46 62//46 61//46
f 48//3 63//3 64//3
f 46//47 61//47 63//47
f 60//48 62//48 42//48
f 74//49 85//49 75//49
f 64//50 75//50 65//50
f 62//51 71//51 61//51
f 69//8 78//8 79//8
f 65//52 76//52 66//52
f 61//53 73//53 63//53
f 70//54 79//54 80//54
f 67//55 76//55 77//55
f 63//3 74//3 64//3
f 62//56 80//56 72//56
f 82//57 91//57 81//57
f 72//58 81//58 71//58
f 79//8 88//8 89//8
f 75//59 86//59 76//59
f 71//60 83//60 73//60
f 80//61 89//61 90//61
f 77//62 86//62 87//62
f 73//3 84//3 74//3
f 72//63 90//63 82//63
f 78//64 87//64 88//64
f 95//65 106//65 96//65
f 89//8 98//8 99//8
f 85//66 96//66 86//66
f 81//67 93//67 83//67
f 90//68 99//68 100//68
f 87//69 96//69 97//69
f 83//3 94//3 84//3
f 82//70 100//70 92//70
f 88//71 97//71 98//71
f 84//72 95//72 85//72
f 109//22 107//22 105//22
f 91//73 103//73 93//73
f 100//74 109//74 110//74
f 97//75 106//75 107//75
f 93//3 104//3 94//3
f 92//76 110//76 102//76
f 98//77 107//77 108//77
f 94//78 105//78 95//78
f 92//79 101//79 91//79
f 99//8 108//8 109//8
f 2//1 4//1 3//1
f 4//2 6//2 5//2
f 6//3 8//3 7//3
f 8//4 10//4 9//4
f 10//5 12//5 11//5
f 12//6 14//6 13//6
f 14//7 16//7 15//7
f 16//8 18//8 17//8
f 18//9 29//9 30//9
f 18//10 20//10 19//10
f 20//11 2//11 1//11
f 27//12 37//12 38//12
f 16//13 28//13 29//13
f 14//14 27//14 28//14
f 12//15 26//15 27//15
f 10//16 25//16 26//16
f 8//17 24//17 25//17
f 4//18 2//18 22//18
f 6//19 23//19 24//19
f 4//20 21//20 23//20
f 2//21 20//21 30//21
f 33//22 31//22 32//22
f 32//22 40//22 39//22
f 39//22 38//22 37//22
f 37//22 36//22 35//22
f 35//22 34//22 33//22
f 33//22 32//22 39//22
f 39//22 37//22 33//22
f 25//23 24//23 34//23
f 22//24 32//24 31//24
f 28//25 38//25 39//25
f 25//26 35//26 36//26
f 23//27 21//27 31//27
f 29//28 39//28 40//28
f 27//29 26//29 36//29
f 23//30 33//30 34//30
f 22//31 30//31 40//31
f 42//32 44//32 43//32
f 44//33 46//33 45//33
f 46//3 48//3 47//3
f 48//34 50//34 49//34
f 50//35 52//35 51//35
f 51//36 52//36 54//36
f 53//37 54//37 56//37
f 55//8 56//8 58//8
f 58//38 69//38 70//38
f 57//39 58//39 60//39
f 59//40 60//40 42//40
f 68//41 67//41 77//41
f 56//8 68//8 69//8
f 54//42 67//42 68//42
f 52//43 66//43 67//43
f 52//44 50//44 65//44
f 50//45 48//45 64//45
f 44//46 42//46 62//46
f 48//3 46//3 63//3
f 46//47 44//47 61//47
f 60//48 70//48 62//48
f 74//49 84//49 85//49
f 64//50 74//50 75//50
f 62//51 72//51 71//51
f 69//8 68//8 78//8
f 65//52 75//52 76//52
f 61//53 71//53 73//53
f 70//54 69//54 79//54
f 67//55 66//55 76//55
f 63//3 73//3 74//3
f 62//56 70//56 80//56
f 82//57 92//57 91//57
f 72//58 82//58 81//58
f 79//8 78//8 88//8
f 75//59 85//59 86//59
f 71//60 81//60 83//60
f 80//61 79//61 89//61
f 77//62 76//62 86//62
f 73//3 83//3 84//3
f 72//63 80//63 90//63
f 78//64 77//64 87//64
f 95//65 105//65 106//65
f 89//8 88//8 98//8
f 85//66 95//66 96//66
f 81//67 91//67 93//67
f 90//68 89//68 99//68
f 87//69 86//69 96//69
f 83//3 93//3 94//3
f 82//70 90//70 100//70
f 88//71 87//71 97//71
f 84//72 94//72 95//72
f 103//22 101//22 102//22
f 102//22 110//22 103//22
f 110//22 109//22 103//22
f 109//22 108//22 107//22
f 107//22 106//22 105//22
f 105//22 104//22 109//22
f 104//22 103//22 109//22
f 91//73 101//73 103//73
f 100//74 99//74 109//74
f 97//75 96//75 106//75
f 93//3 103//3 104//3
f 92//76 100//76 110//76
f 98//77 97//77 107//77
f 94//78 104//78 105//78
f 92//79 102//79 101//79
f 99//8 98//8 108//8
